<svg width="262" height="36" viewBox="0 0 262 36" fill="none" xmlns="http://www.w3.org/2000/svg">
<g clip-path="url(#clip0_1570_4)">
<path d="M0 35.5277V0.485413H8.42846V28.6531H22.9239V35.5277H0Z" fill="#E2EF1E"/>
<path d="M32.8658 0.301758V35.5277H24.4373V0.301758H32.8658Z" fill="#E2EF1E"/>
<path d="M58.099 11.9257C57.9033 11.2041 57.6162 10.5743 57.2509 10.0233C56.8726 9.4723 56.4159 8.99999 55.8679 8.60641C55.3199 8.21282 54.6937 7.92419 54.0022 7.7274C53.2976 7.53061 52.5279 7.42565 51.6928 7.42565C49.9967 7.42565 48.5354 7.83236 47.309 8.65889C46.0826 9.48542 45.1301 10.6793 44.4647 12.2405C43.7993 13.8149 43.4601 15.7172 43.4601 17.9475C43.4601 20.1778 43.7863 22.1064 44.4256 23.6939C45.0779 25.2813 46.0043 26.4883 47.2307 27.328C48.4571 28.1545 49.9445 28.5743 51.6928 28.5743C53.2324 28.5743 54.5371 28.3251 55.62 27.8134C56.6899 27.3017 57.5119 26.5802 58.0598 25.6487C58.6209 24.7172 58.8949 23.6152 58.8949 22.3426L60.4605 22.5262H51.9799V16.3469H67.0102V20.9781C67.0102 24.1137 66.3448 26.8032 65.027 29.0335C63.7093 31.2638 61.8957 32.9825 59.5864 34.1895C57.277 35.3834 54.6284 35.9869 51.6276 35.9869C48.3006 35.9869 45.378 35.2653 42.8599 33.809C40.3418 32.3659 38.3847 30.293 36.9756 27.6035C35.5665 24.914 34.862 21.7259 34.862 18.0262C34.862 15.1531 35.2926 12.5947 36.1406 10.3644C36.9887 8.1341 38.176 6.24489 39.7025 4.69679C41.229 3.14868 43.0034 1.96792 45.0127 1.16763C47.022 0.367341 49.2008 -0.0262451 51.5232 -0.0262451C53.5455 -0.0262451 55.4243 0.262385 57.1596 0.852764C58.8949 1.43002 60.4475 2.25655 61.7913 3.31924C63.1352 4.38192 64.2312 5.64139 65.0662 7.09766C65.9012 8.55393 66.4231 10.1545 66.6318 11.9125H58.112L58.099 11.9257Z" fill="#E2EF1E"/>
<path d="M69.2282 35.5277V0.485413H77.6567V14.5496H91.3954V0.485413H99.7977V35.5277H91.3954V21.4504H77.6567V35.5277H69.2282Z" fill="#E2EF1E"/>
<path d="M101.481 7.36005V0.485413H130.941V7.36005H120.373V35.5277H112.062V7.36005H101.481Z" fill="#E2EF1E"/>
<path d="M160.324 25.7143C160.18 23.6545 159.201 22.2245 158.706 21.5685C157.779 20.3353 156.749 19.6531 156.279 19.3644C155.953 19.1676 155.157 18.7216 154.048 18.4329C153.213 18.2099 152.482 18.1443 151.934 18.1443V17.9213C152.834 17.9082 153.578 17.7507 154.1 17.6064C154.387 17.5277 155.366 17.2259 156.488 16.5044C157.218 16.0321 157.714 15.5598 157.949 15.3236C158.066 15.2055 158.549 14.7201 159.084 13.9329C159.515 13.2901 159.88 12.6735 160.141 11.7551C160.258 11.3353 160.337 10.8761 160.337 10.2857C160.337 9.18366 160.18 8.16034 159.854 7.18949C159.619 6.50728 159.358 5.86442 158.967 5.2478C158.014 3.7653 156.631 2.61078 154.831 1.75801C153.03 0.905238 150.838 0.485413 148.268 0.485413H132.624V35.5277H148.268C150.838 35.5277 153.03 35.1079 154.831 34.2551C156.631 33.4023 158.014 32.2478 158.967 30.7653C159.241 30.3324 159.475 29.8863 159.671 29.4271C159.776 29.1647 159.88 28.7974 160.023 28.3251C160.232 27.6297 160.402 26.7376 160.337 25.7143H160.324ZM141.027 6.78279L146.963 6.82215C147.25 6.82215 147.537 6.84839 147.824 6.88775C147.955 6.91398 148.085 6.9271 148.216 6.95334C148.411 6.9927 148.607 7.03206 148.777 7.08454C149.246 7.21573 149.651 7.39941 149.99 7.62244C150.081 7.68804 150.173 7.75363 150.264 7.81923C150.486 7.98979 150.669 8.18658 150.838 8.39649C150.917 8.50145 150.995 8.6064 151.06 8.72448C151.269 9.06559 151.399 9.44606 151.491 9.85276C151.543 10.1283 151.569 10.4169 151.569 10.7318C151.569 11.637 151.36 12.1487 150.943 12.8047C150.629 13.2901 150.212 13.7099 149.703 14.0379C149.612 14.0904 149.534 14.1428 149.442 14.1953C149.351 14.2478 149.26 14.2872 149.155 14.3396C149.038 14.3921 148.907 14.4446 148.79 14.4971C148.098 14.7595 147.302 14.8775 146.389 14.8775H141.027V6.78279ZM146.233 29.2172H141.027V21.1224H146.389C147.302 21.1224 148.098 21.2536 148.79 21.516C148.92 21.5554 149.038 21.6079 149.155 21.6735C149.925 22.0277 150.525 22.5393 150.943 23.1953C151.36 23.8513 151.569 24.363 151.569 25.2682C151.569 26.5146 151.138 27.4854 150.264 28.1807C149.912 28.4563 149.481 28.6924 148.986 28.8498C148.229 29.0991 147.315 29.2172 146.22 29.2172H146.233Z" fill="#E2EF1E"/>
<path d="M185.765 7.36004V0.47229H161.459C161.459 0.47229 161.459 10.3775 161.459 10.4169C161.459 14.2216 165.412 17.3571 168.909 17.8294C168.987 17.8294 169.887 17.9213 169.887 17.9081V18.1312C169.065 18.1312 168.256 18.2755 167.486 18.5116C164.238 19.5219 161.563 22.5262 161.459 26.0291C161.406 27.4985 161.459 28.9548 161.459 30.4242V35.5408H185.765V28.6662H169.887V21.4635H184.526V14.5627H169.887V7.37316H185.765V7.36004Z" fill="#E2EF1E"/>
<path d="M195.825 35.5277H186.77L198.539 0.485413H209.759L221.515 35.5277H212.46L204.279 9.31486H204.005L195.838 35.5277H195.825ZM194.624 21.7391H213.543V28.1676H194.624V21.7391Z" fill="#E2EF1E"/>
<path d="M223.028 0.485413H233.466L242.312 22.1851H242.716L251.575 0.485413H262.013V35.5277H253.806V13.9985H253.519L245.143 35.3047H239.898L231.522 13.8805H231.235V35.5277H223.028V0.485413Z" fill="#E2EF1E"/>
</g>
<defs>
<clipPath id="clip0_1570_4">
<rect width="262" height="36" fill="white"/>
</clipPath>
</defs>
</svg>
